<svg width="17" height="14" viewBox="0 0 17 14" fill="none" xmlns="http://www.w3.org/2000/svg">
<path fill-rule="evenodd" clip-rule="evenodd" d="M0.680664 4.77557C0.680664 2.36668 2.79398 0.511902 5.27456 0.511902C6.55324 0.511902 7.67841 1.11146 8.48582 1.88725C9.29324 1.11146 10.4184 0.511902 11.6971 0.511902C14.1777 0.511902 16.291 2.36668 16.291 4.77557C16.291 6.42569 15.5873 7.8768 14.6124 9.10341C13.6391 10.3279 12.3661 11.3671 11.1471 12.2116C10.6816 12.5341 10.2106 12.8317 9.77949 13.0512C9.37473 13.2573 8.9093 13.4462 8.48582 13.4462C8.06234 13.4462 7.59692 13.2573 7.19216 13.0512C6.76109 12.8317 6.29009 12.5341 5.82452 12.2116C4.60559 11.3671 3.33252 10.3279 2.35928 9.10341C1.38436 7.8768 0.680664 6.42569 0.680664 4.77557ZM5.27456 1.84993C3.41983 1.84993 2.01869 3.21391 2.01869 4.77557C2.01869 6.02751 2.55014 7.19312 3.40675 8.27087C4.26505 9.35074 5.41989 10.3035 6.58649 11.1117C7.02793 11.4175 7.44372 11.6778 7.79937 11.8589C8.18133 12.0534 8.40257 12.1081 8.48582 12.1081C8.56908 12.1081 8.79032 12.0534 9.17228 11.8589C9.52793 11.6778 9.94372 11.4175 10.3852 11.1117C11.5518 10.3035 12.7066 9.35074 13.5649 8.27087C14.4215 7.19312 14.953 6.02751 14.953 4.77557C14.953 3.21391 13.5518 1.84993 11.6971 1.84993C10.6319 1.84993 9.63724 2.48632 9.01619 3.29404C8.88955 3.45874 8.69358 3.55526 8.48582 3.55526C8.27807 3.55526 8.0821 3.45874 7.95546 3.29404C7.33441 2.48632 6.33976 1.84993 5.27456 1.84993Z" fill="#323142"/>
</svg>
