<svg width="17" height="14" viewBox="0 0 17 14" fill="none" xmlns="http://www.w3.org/2000/svg">
<path fill-rule="evenodd" clip-rule="evenodd" d="M16.406 1.85816C15.8059 2.12072 15.2057 2.30826 14.5306 2.38328C15.2057 1.97068 15.7309 1.33304 15.9559 0.582871C15.3183 0.957955 14.6056 1.22051 13.8929 1.37055C13.2928 0.732902 12.4301 0.320312 11.4924 0.320312C9.69198 0.320312 8.22913 1.78314 8.22913 3.58354C8.22913 3.84611 8.26664 4.10866 8.30415 4.33372C5.56602 4.18368 3.16547 2.90839 1.55259 0.920449C1.25252 1.40806 1.10249 1.97068 1.10249 2.57082C1.10249 3.69607 1.66512 4.7088 2.56533 5.30893C2.04021 5.30893 1.51509 5.1589 1.06498 4.89634V4.93384C1.06498 6.5092 2.19024 7.8595 3.69059 8.15956C3.42802 8.23458 3.12796 8.27209 2.82789 8.27209C2.60284 8.27209 2.41529 8.23458 2.22775 8.19708C2.64034 9.50986 3.84063 10.4476 5.30346 10.4851C4.1782 11.3478 2.79038 11.8729 1.25252 11.8729C0.989965 11.8729 0.727406 11.8729 0.464844 11.8354C1.92768 12.7731 3.61557 13.2982 5.491 13.2982C11.5299 13.2982 14.7932 8.3096 14.7932 3.99614C14.7932 3.84611 14.7932 3.69607 14.7932 3.58354C15.4308 3.09594 15.9934 2.4958 16.406 1.85816Z" fill="#081420"/>
</svg>
