<svg width="17" height="16" viewBox="0 0 17 16" fill="none" xmlns="http://www.w3.org/2000/svg">
<path fill-rule="evenodd" clip-rule="evenodd" d="M8.12998 0C9.19048 0.0378781 10.2889 0.0378781 11.3494 0.0757512C12.2962 0.113624 13.1674 0.265125 14.0006 0.757496C15.0611 1.40137 15.705 2.34824 15.9322 3.56023C16.0459 4.27985 16.0837 5.03735 16.1216 5.75698C16.1595 7.34771 16.1216 8.93846 16.1216 10.5292C16.1216 11.3624 16.0837 12.1957 15.8186 12.9911C15.2884 14.5439 14.19 15.4908 12.5992 15.7938C11.8796 15.9453 11.1221 15.9453 10.4025 15.9832C8.81173 16.021 7.25885 15.9832 5.6681 15.9832C4.83485 15.9832 4.0016 15.9453 3.20623 15.6802C1.65335 15.1499 0.706474 14.0515 0.403473 12.4608C0.251976 11.7412 0.251976 10.9837 0.2141 10.2641C0.176223 8.67333 0.2141 7.08259 0.2141 5.49185C0.2141 4.65861 0.251976 3.82536 0.5171 3.02998C1.04735 1.47711 2.14573 0.530251 3.73647 0.227251C4.4561 0.0757562 5.2136 0.0757562 5.93323 0.0378781C6.65285 0 7.37247 0 8.12998 0ZM14.6822 7.84071C14.6444 7.84071 14.6822 7.84071 14.6822 7.84071C14.6444 7.19684 14.6444 6.59084 14.6444 5.94696C14.6444 5.34097 14.6065 4.73497 14.5307 4.12898C14.3792 2.76548 13.5839 1.85648 12.2582 1.59136C11.5765 1.43987 10.819 1.43987 10.1372 1.43987C8.77373 1.40199 7.4481 1.40199 6.0846 1.43987C5.40285 1.43987 4.7211 1.47773 4.07722 1.59136C2.94097 1.78074 2.1456 2.42461 1.80473 3.56085C1.6911 3.9396 1.65323 4.31835 1.61535 4.69709C1.57747 6.13634 1.57747 7.57558 1.57747 9.01482C1.57747 9.92382 1.61535 10.8707 1.6911 11.7797C1.80473 13.1432 2.63797 14.09 4.00148 14.3173C4.68322 14.4309 5.40285 14.4688 6.12248 14.4688C7.4481 14.5067 8.77373 14.4688 10.1372 14.4688C10.7432 14.4688 11.3492 14.4309 11.9552 14.3552C12.5234 14.3173 13.0536 14.1279 13.5081 13.7492C14.2656 13.1432 14.5307 12.3478 14.5686 11.4388C14.6444 10.3026 14.6444 9.09057 14.6822 7.84071Z" fill="#081420"/>
<path fill-rule="evenodd" clip-rule="evenodd" d="M12.2201 7.99134C12.2201 10.2638 10.4021 12.0818 8.12957 12.0818C5.85707 12.0818 4.03906 10.2638 4.03906 7.95347C4.03906 5.71886 5.89494 3.90088 8.16744 3.90088C10.4021 3.90088 12.2201 5.71886 12.2201 7.99134ZM8.12999 10.6434C9.56923 10.6434 10.7812 9.43144 10.7812 7.99221C10.7812 6.55297 9.56923 5.34098 8.12999 5.34098C6.65286 5.34098 5.47873 6.55297 5.47873 7.99221C5.44086 9.43144 6.65286 10.6434 8.12999 10.6434Z" fill="#081420"/>
<path d="M13.3188 3.71104C13.3188 4.24129 12.9022 4.69579 12.3719 4.69579C11.8417 4.69579 11.3872 4.24129 11.4251 3.71104C11.4251 3.18079 11.8417 2.76416 12.3719 2.76416C12.9022 2.76416 13.3188 3.18078 13.3188 3.71104Z" fill="#081420"/>
</svg>
