<svg width="17" height="16" viewBox="0 0 17 16" fill="none" xmlns="http://www.w3.org/2000/svg">
<path fill-rule="evenodd" clip-rule="evenodd" d="M16.0799 9.32412V15.2107H12.6425V9.71083C12.6425 8.33586 12.1698 7.39057 10.9237 7.39057C9.97845 7.39057 9.41986 8.03509 9.16205 8.63664C9.07612 8.85147 9.03315 9.15225 9.03315 9.45302V15.2107H5.5957C5.5957 15.2107 5.63867 5.88669 5.5957 4.9414H9.03315V6.40231C9.03315 6.40231 9.03315 6.44527 8.99018 6.44527H9.03315V6.40231C9.5058 5.71482 10.2792 4.68359 12.1269 4.68359C14.3612 4.68359 16.0799 6.18747 16.0799 9.32412ZM2.07224 0C0.912098 0 0.138672 0.773422 0.138672 1.76168C0.138672 2.74994 0.869131 3.52337 2.02927 3.52337H2.07224C3.27535 3.52337 4.00581 2.74995 4.00581 1.76168C3.96284 0.773422 3.23238 0 2.07224 0ZM0.310547 15.2107H3.70504V4.94141H0.310547V15.2107Z" fill="#081420"/>
</svg>
