<svg width="108" height="41" viewBox="0 0 108 41" fill="none" xmlns="http://www.w3.org/2000/svg">
<rect x="3.76172" y="5.17297" width="40.4875" height="35.7645" rx="6.67603" fill="#6C5FBC"/>
<rect x="1.20726" y="1.36876" width="38.5574" height="33.8343" rx="5.71096" fill="#DBD9EE" stroke="#6C5FBC" stroke-width="1.93015"/>
<path d="M31.4883 11.9486L9.55106 11.8516" stroke="#6C5FBC" stroke-width="1.99655" stroke-linecap="round" stroke-linejoin="round"/>
<path d="M31.4783 16.342L26.597 16.3174C24.5779 16.3072 22.9442 14.3318 22.9507 11.9086C22.9572 9.48528 24.6015 7.52641 26.6206 7.53657L31.502 7.56116" stroke="#6C5FBC" stroke-width="1.99655" stroke-linecap="round" stroke-linejoin="round"/>
<path d="M16.8739 25.9992L10.4977 25.9243C9.97521 25.9217 9.53725 25.4066 9.52707 24.7796L9.48402 23.1267C9.47391 22.4712 9.91474 21.9178 10.4609 21.9205L16.7659 21.995L16.8739 25.9992Z" stroke="#6C5FBC" stroke-width="1.99655" stroke-linecap="round" stroke-linejoin="round"/>
<path d="M26.8869 28.3809L17.8745 28.2643C17.352 28.2617 16.914 27.7468 16.9039 27.12L16.7871 21.9778L31.4278 22.1654L31.4379 22.8206C31.5126 25.9259 29.4635 28.4224 26.8869 28.3809Z" stroke="#6C5FBC" stroke-width="1.99655" stroke-linecap="round" stroke-linejoin="round"/>
<path d="M66.635 21.0244C66.635 21.4301 66.6079 21.7952 66.5538 22.1197H58.3388C58.4064 22.9311 58.6904 23.5666 59.1907 24.0264C59.6911 24.4862 60.3063 24.7161 61.0366 24.7161C62.0913 24.7161 62.8419 24.2631 63.2881 23.357H66.351C66.0265 24.4389 65.4044 25.3314 64.4849 26.0345C63.5653 26.7242 62.4362 27.069 61.0974 27.069C60.0156 27.069 59.042 26.8324 58.1765 26.3591C57.3246 25.8723 56.6552 25.1894 56.1684 24.3104C55.6951 23.4314 55.4584 22.4172 55.4584 21.2678C55.4584 20.1048 55.6951 19.0839 56.1684 18.2049C56.6417 17.3259 57.3043 16.6498 58.1562 16.1765C59.0082 15.7032 59.9886 15.4665 61.0974 15.4665C62.1657 15.4665 63.1191 15.6964 63.9575 16.1562C64.8094 16.616 65.4653 17.2718 65.925 18.1237C66.3983 18.9622 66.635 19.929 66.635 21.0244ZM63.6938 20.213C63.6803 19.4828 63.4166 18.9013 62.9027 18.4686C62.3888 18.0223 61.76 17.7992 61.0163 17.7992C60.3131 17.7992 59.7181 18.0156 59.2313 18.4483C58.758 18.8675 58.4672 19.4557 58.3591 20.213H63.6938ZM67.9775 21.2272C67.9775 20.0913 68.2007 19.0839 68.6469 18.2049C69.1067 17.3259 69.722 16.6498 70.4928 16.1765C71.2771 15.7032 72.1493 15.4665 73.1094 15.4665C73.9478 15.4665 74.678 15.6356 75.3001 15.9736C75.9357 16.3117 76.4428 16.7377 76.8214 17.2515V15.6491H79.6815V26.8865H76.8214V25.2435C76.4563 25.7708 75.9492 26.2103 75.3001 26.5619C74.6645 26.9 73.9275 27.069 73.0891 27.069C72.1425 27.069 71.2771 26.8256 70.4928 26.3388C69.722 25.852 69.1067 25.1691 68.6469 24.2901C68.2007 23.3976 67.9775 22.3766 67.9775 21.2272ZM76.8214 21.2678C76.8214 20.5781 76.6862 19.9899 76.4157 19.5031C76.1453 19.0027 75.7801 18.6241 75.3204 18.3672C74.8606 18.0967 74.367 17.9615 73.8396 17.9615C73.3123 17.9615 72.8254 18.0899 72.3792 18.3469C71.9329 18.6038 71.5678 18.9824 71.2838 19.4828C71.0134 19.9696 70.8782 20.5511 70.8782 21.2272C70.8782 21.9033 71.0134 22.4983 71.2838 23.0122C71.5678 23.5126 71.9329 23.898 72.3792 24.1684C72.839 24.4389 73.3258 24.5741 73.8396 24.5741C74.367 24.5741 74.8606 24.4456 75.3204 24.1887C75.7801 23.9182 76.1453 23.5396 76.4157 23.0528C76.6862 22.5524 76.8214 21.9574 76.8214 21.2678ZM85.7613 17.9818V23.4179C85.7613 23.7965 85.8492 24.0737 86.025 24.2495C86.2143 24.4118 86.5253 24.493 86.9581 24.493H88.2765V26.8865H86.4915C84.098 26.8865 82.9012 25.7235 82.9012 23.3976V17.9818H81.5625V15.6491H82.9012V12.8702H85.7613V15.6491H88.2765V17.9818H85.7613ZM93.1588 11.8762V26.8865H90.319V11.8762H93.1588ZM106.715 15.6491L99.7576 32.2009H96.7353L99.1694 26.6025L94.6663 15.6491H97.8509L100.752 23.499L103.693 15.6491H106.715Z" fill="#6C5FBC"/>
</svg>
