<svg width="16" height="16" viewBox="0 0 16 16" fill="none" xmlns="http://www.w3.org/2000/svg">
<path d="M8.50927 2.25838L8.49067 2.3018L6.69196 6.47604H4.92427C4.5025 6.47604 4.09934 6.56287 3.7334 6.71793L4.81882 4.12531L4.84363 4.06329L4.88705 3.96405C4.89946 3.92684 4.91186 3.88962 4.93047 3.85861C5.74299 1.97927 6.66095 1.5513 8.50927 2.25838Z" stroke="#936DFF" stroke-width="0.930365" stroke-linecap="round" stroke-linejoin="round"/>
<path d="M11.8518 6.60001C11.5727 6.51317 11.275 6.47596 10.9773 6.47596H6.69141L8.49011 2.30172L8.50872 2.2583C8.60176 2.28931 8.68859 2.33273 8.78163 2.36994L10.1524 2.94677C10.9153 3.2631 11.4487 3.59182 11.7712 3.98878C11.8332 4.06321 11.8828 4.13144 11.9263 4.21207C11.9821 4.2989 12.0255 4.38574 12.0503 4.47877C12.0751 4.53459 12.0937 4.59042 12.1061 4.64004C12.2736 5.16104 12.1744 5.79989 11.8518 6.60001Z" stroke="#936DFF" stroke-width="0.930365" stroke-linecap="round" stroke-linejoin="round"/>
<path d="M14.0052 9.50286V10.7123C14.0052 10.8364 13.999 10.9604 13.9928 11.0845C13.875 13.2491 12.6655 14.3408 10.3706 14.3408H5.53272C5.38386 14.3408 5.235 14.3284 5.09235 14.3097C3.11997 14.1795 2.06556 13.1251 1.93531 11.1527C1.9167 11.0101 1.9043 10.8612 1.9043 10.7123V9.50286C1.9043 8.25617 2.66099 7.18315 3.74022 6.71797C4.11236 6.56291 4.50932 6.47607 4.93109 6.47607H10.9847C11.2886 6.47607 11.5863 6.51949 11.8592 6.60012C13.0935 6.97847 14.0052 8.13212 14.0052 9.50286Z" stroke="#936DFF" stroke-width="0.930365" stroke-linecap="round" stroke-linejoin="round"/>
<path d="M4.81881 4.125L3.73338 6.71762C2.65416 7.1828 1.89746 8.25582 1.89746 9.50251V7.6852C1.89746 5.92371 3.15035 4.45373 4.81881 4.125Z" stroke="#936DFF" stroke-width="0.930365" stroke-linecap="round" stroke-linejoin="round"/>
<path d="M14.0044 7.68469V9.502C14.0044 8.13746 13.0989 6.97761 11.8584 6.60546C12.1809 5.79915 12.274 5.1665 12.1189 4.63929C12.1065 4.58347 12.0879 4.52765 12.0631 4.47803C13.2167 5.07346 14.0044 6.29534 14.0044 7.68469Z" stroke="#936DFF" stroke-width="0.930365" stroke-linecap="round" stroke-linejoin="round"/>
</svg>
