<svg width="16" height="16" viewBox="0 0 16 16" fill="none" xmlns="http://www.w3.org/2000/svg">
<path d="M11.2011 13.3806H4.99868C3.13795 13.3806 1.89746 12.4502 1.89746 10.2793V5.93764C1.89746 3.76679 3.13795 2.83643 4.99868 2.83643H11.2011C13.0618 2.83643 14.3023 3.76679 14.3023 5.93764V10.2793C14.3023 12.4502 13.0618 13.3806 11.2011 13.3806Z" stroke="#22C55E" stroke-width="0.930365" stroke-miterlimit="10" stroke-linecap="round" stroke-linejoin="round"/>
<path d="M8.09999 9.96902C9.12764 9.96902 9.96072 9.13594 9.96072 8.10829C9.96072 7.08064 9.12764 6.24756 8.09999 6.24756C7.07234 6.24756 6.23926 7.08064 6.23926 8.10829C6.23926 9.13594 7.07234 9.96902 8.09999 9.96902Z" stroke="#22C55E" stroke-width="0.930365" stroke-miterlimit="10" stroke-linecap="round" stroke-linejoin="round"/>
<path d="M4.06934 6.55811V9.65932" stroke="#22C55E" stroke-width="0.930365" stroke-miterlimit="10" stroke-linecap="round" stroke-linejoin="round"/>
<path d="M12.1318 6.55811V9.65932" stroke="#22C55E" stroke-width="0.930365" stroke-miterlimit="10" stroke-linecap="round" stroke-linejoin="round"/>
</svg>
