<svg width="78" height="13" viewBox="0 0 78 13" fill="none" xmlns="http://www.w3.org/2000/svg">
<g opacity="0.8">
<path d="M6.06627 1.0615C6.32349 0.269864 7.44344 0.269865 7.70066 1.0615L8.61969 3.88998C8.73472 4.24401 9.06463 4.4837 9.43688 4.4837H12.4109C13.2433 4.4837 13.5894 5.54884 12.916 6.0381L10.5099 7.78619C10.2088 8.005 10.0828 8.39283 10.1978 8.74686L11.1168 11.5753C11.374 12.367 10.468 13.0253 9.79456 12.536L7.38852 10.7879C7.08736 10.5691 6.67957 10.5691 6.37841 10.7879L3.97237 12.536C3.29896 13.0253 2.3929 12.367 2.65012 11.5753L3.56914 8.74686C3.68418 8.39283 3.55816 8.005 3.257 7.78619L0.85096 6.0381C0.177554 5.54884 0.523639 4.4837 1.35601 4.4837H4.33005C4.7023 4.4837 5.03221 4.24401 5.14724 3.88998L6.06627 1.0615Z" fill="#F59E0B"/>
<path d="M22.0458 1.0615C22.303 0.269864 23.4229 0.269865 23.6802 1.0615L24.5992 3.88998C24.7142 4.24401 25.0441 4.4837 25.4164 4.4837H28.3904C29.2228 4.4837 29.5689 5.54884 28.8955 6.0381L26.4894 7.78619C26.1883 8.005 26.0622 8.39283 26.1773 8.74686L27.0963 11.5753C27.3535 12.367 26.4475 13.0253 25.7741 12.536L23.368 10.7879C23.0669 10.5691 22.6591 10.5691 22.3579 10.7879L19.9519 12.536C19.2785 13.0253 18.3724 12.367 18.6296 11.5753L19.5486 8.74686C19.6637 8.39283 19.5377 8.005 19.2365 7.78619L16.8305 6.0381C16.157 5.54884 16.5031 4.4837 17.3355 4.4837H20.3095C20.6818 4.4837 21.0117 4.24401 21.1267 3.88998L22.0458 1.0615Z" fill="#F59E0B"/>
<path d="M38.0243 1.0615C38.2815 0.269864 39.4015 0.269865 39.6587 1.0615L40.5777 3.88998C40.6927 4.24401 41.0226 4.4837 41.3949 4.4837H44.3689C45.2013 4.4837 45.5474 5.54884 44.874 6.0381L42.4679 7.78619C42.1668 8.005 42.0408 8.39283 42.1558 8.74686L43.0748 11.5753C43.332 12.367 42.426 13.0253 41.7526 12.536L39.3465 10.7879C39.0454 10.5691 38.6376 10.5691 38.3364 10.7879L35.9304 12.536C35.257 13.0253 34.3509 12.367 34.6081 11.5753L35.5272 8.74686C35.6422 8.39283 35.5162 8.005 35.215 7.78619L32.809 6.0381C32.1356 5.54884 32.4816 4.4837 33.314 4.4837H36.2881C36.6603 4.4837 36.9902 4.24401 37.1053 3.88998L38.0243 1.0615Z" fill="#F59E0B"/>
<path d="M54.0038 1.0615C54.261 0.269864 55.3809 0.269865 55.6382 1.0615L56.5572 3.88998C56.6722 4.24401 57.0021 4.4837 57.3744 4.4837H60.3484C61.1808 4.4837 61.5269 5.54884 60.8535 6.0381L58.4474 7.78619C58.1463 8.005 58.0203 8.39283 58.1353 8.74686L59.0543 11.5753C59.3115 12.367 58.4055 13.0253 57.7321 12.536L55.326 10.7879C55.0249 10.5691 54.6171 10.5691 54.3159 10.7879L51.9099 12.536C51.2365 13.0253 50.3304 12.367 50.5876 11.5753L51.5066 8.74686C51.6217 8.39283 51.4957 8.005 51.1945 7.78619L48.7885 6.0381C48.1151 5.54884 48.4611 4.4837 49.2935 4.4837H52.2675C52.6398 4.4837 52.9697 4.24401 53.0847 3.88998L54.0038 1.0615Z" fill="#F59E0B"/>
<path d="M69.9833 1.0615C70.2405 0.269864 71.3604 0.269865 71.6177 1.0615L72.5367 3.88998C72.6517 4.24401 72.9816 4.4837 73.3539 4.4837H76.3279C77.1603 4.4837 77.5064 5.54884 76.833 6.0381L74.4269 7.78619C74.1258 8.005 73.9997 8.39283 74.1148 8.74686L75.0338 11.5753C75.291 12.367 74.385 13.0253 73.7116 12.536L71.3055 10.7879C71.0044 10.5691 70.5966 10.5691 70.2954 10.7879L67.8894 12.536C67.216 13.0253 66.3099 12.367 66.5671 11.5753L67.4861 8.74686C67.6012 8.39283 67.4752 8.005 67.174 7.78619L64.768 6.0381C64.0945 5.54884 64.4406 4.4837 65.273 4.4837H68.247C68.6193 4.4837 68.9492 4.24401 69.0642 3.88998L69.9833 1.0615Z" fill="#F59E0B"/>
</g>
</svg>
