<svg width="99" height="25" viewBox="0 0 99 25" fill="none" xmlns="http://www.w3.org/2000/svg">
<path d="M25.8846 9.22852H35.8476V11.0833H31.9248V21.5387H29.7746V11.0833H25.8682L25.8846 9.22852ZM35.4209 12.6261H37.2592V14.3496H37.292C37.3577 14.1034 37.4726 13.8736 37.6367 13.6438C37.8009 13.414 37.9978 13.2006 38.244 13.0201C38.4738 12.8231 38.7364 12.6754 39.0319 12.5605C39.3109 12.4456 39.6064 12.3799 39.9018 12.3799C40.1316 12.3799 40.2957 12.3963 40.3778 12.3963C40.4599 12.4128 40.5583 12.4292 40.6404 12.4292V14.3167C40.5091 14.2839 40.3614 14.2675 40.2137 14.2511C40.0659 14.2347 39.9346 14.2183 39.7869 14.2183C39.4586 14.2183 39.1468 14.2839 38.8513 14.4152C38.5559 14.5465 38.3097 14.7435 38.0799 14.9897C37.8665 15.2523 37.686 15.5642 37.5547 15.9417C37.4233 16.3192 37.3577 16.7624 37.3577 17.2548V21.4895H35.3881L35.4209 12.6261ZM49.6679 21.5387H47.7311V20.2913H47.6983C47.4521 20.7509 47.091 21.0956 46.615 21.3746C46.139 21.6536 45.6466 21.7849 45.1542 21.7849C43.9888 21.7849 43.1353 21.5059 42.6101 20.915C42.0848 20.3405 41.8222 19.4542 41.8222 18.2888V12.6261H43.7918V18.0919C43.7918 18.8797 43.9396 19.4378 44.2514 19.7496C44.5469 20.0779 44.9736 20.242 45.5153 20.242C45.9256 20.242 46.2703 20.1764 46.5493 20.0451C46.8284 19.9138 47.0581 19.7496 47.2223 19.5363C47.4028 19.3229 47.5177 19.0603 47.5998 18.7648C47.6819 18.4694 47.7147 18.1411 47.7147 17.7964V12.6261H49.6843V21.5387H49.6679ZM53.0163 18.6828C53.0819 19.2572 53.2953 19.6512 53.6728 19.8974C54.0503 20.1272 54.5099 20.242 55.0352 20.242C55.2157 20.242 55.4291 20.2256 55.6589 20.1928C55.8887 20.16 56.1185 20.1107 56.3154 20.0287C56.5288 19.9466 56.6929 19.8317 56.8242 19.6676C56.9556 19.5034 57.0212 19.3065 57.0048 19.0603C56.9884 18.8141 56.9063 18.6007 56.7258 18.4366C56.5452 18.2724 56.3318 18.1575 56.0692 18.0426C55.8066 17.9441 55.4947 17.8621 55.15 17.7964C54.8054 17.7308 54.4607 17.6487 54.0996 17.5666C53.7385 17.4846 53.3774 17.3861 53.0327 17.2712C52.688 17.1563 52.3926 17.0086 52.1135 16.7952C51.8509 16.5982 51.6211 16.352 51.4734 16.0402C51.3093 15.7283 51.2272 15.3672 51.2272 14.9076C51.2272 14.4152 51.3421 14.0213 51.5883 13.693C51.8181 13.3647 52.1299 13.1021 52.491 12.9052C52.8521 12.7082 53.2625 12.5605 53.7057 12.4784C54.1488 12.3963 54.5756 12.3635 54.9695 12.3635C55.4291 12.3635 55.8722 12.4128 56.2826 12.5112C56.6929 12.6097 57.0869 12.7574 57.4151 12.9872C57.7598 13.2006 58.0388 13.4961 58.2522 13.8407C58.482 14.1854 58.6133 14.6122 58.679 15.1046H56.6273C56.5288 14.6286 56.3154 14.3167 55.9871 14.1526C55.6425 13.9885 55.2649 13.9064 54.8218 13.9064C54.6905 13.9064 54.5099 13.9228 54.3294 13.9392C54.1324 13.972 53.9683 14.0049 53.7877 14.0705C53.6236 14.1362 53.4759 14.2347 53.361 14.3496C53.2461 14.4645 53.1804 14.6286 53.1804 14.8256C53.1804 15.0718 53.2625 15.2523 53.4266 15.4C53.5908 15.5478 53.8041 15.6627 54.0832 15.7775C54.3458 15.876 54.6576 15.9581 55.0023 16.0238C55.347 16.0894 55.7081 16.1715 56.0692 16.2535C56.4303 16.3356 56.775 16.4341 57.1197 16.549C57.4644 16.6639 57.7762 16.8116 58.0388 17.025C58.3015 17.2219 58.5313 17.4682 58.6954 17.7636C58.8595 18.059 58.9416 18.4366 58.9416 18.8633C58.9416 19.3885 58.8267 19.8317 58.5805 20.2092C58.3343 20.5703 58.0224 20.8822 57.6449 21.112C57.2674 21.3418 56.8242 21.5059 56.3647 21.6208C55.8887 21.7193 55.4291 21.7849 54.9695 21.7849C54.4114 21.7849 53.8862 21.7193 53.4102 21.588C52.9342 21.4567 52.5075 21.2597 52.1628 21.0135C51.8181 20.7509 51.5391 20.439 51.3421 20.0451C51.1451 19.6676 51.0302 19.208 51.0138 18.6663H52.9999V18.6828H53.0163ZM59.4997 12.6261H60.9933V9.9343H62.9629V12.6097H64.7356V14.0705H62.9629V18.8305C62.9629 19.0439 62.9793 19.208 62.9958 19.3721C63.0122 19.5198 63.0614 19.6512 63.1107 19.7496C63.1763 19.8481 63.2748 19.9302 63.3897 19.9794C63.521 20.0287 63.6851 20.0615 63.9149 20.0615C64.0462 20.0615 64.194 20.0615 64.3253 20.0451C64.4566 20.0287 64.6043 20.0123 64.7356 19.9794V21.5059C64.5222 21.5387 64.3088 21.5551 64.0955 21.5716C63.8821 21.6044 63.6851 21.6044 63.4553 21.6044C62.9301 21.6044 62.5198 21.5551 62.2079 21.4567C61.896 21.3582 61.6498 21.2105 61.4693 21.0299C61.2887 20.8329 61.1738 20.6031 61.1082 20.3241C61.0425 20.0451 61.0097 19.7004 60.9933 19.3393V14.0869H59.4997V12.5933V12.6261ZM66.1143 12.6261H67.9691V13.8407H68.0019C68.2809 13.3155 68.6585 12.9544 69.1509 12.7246C69.6433 12.4948 70.1685 12.3799 70.7594 12.3799C71.4652 12.3799 72.0725 12.4948 72.5977 12.7574C73.123 13.0036 73.5497 13.3319 73.8944 13.7751C74.2391 14.2018 74.5017 14.7107 74.6658 15.2851C74.83 15.8596 74.9285 16.4833 74.9285 17.1235C74.9285 17.7308 74.8464 18.3052 74.6987 18.8633C74.5345 19.4214 74.3047 19.9302 73.9929 20.3569C73.681 20.7837 73.2871 21.1284 72.7947 21.391C72.3023 21.6536 71.7442 21.7849 71.0877 21.7849C70.8086 21.7849 70.5132 21.7521 70.2342 21.7029C69.9551 21.6536 69.6761 21.5716 69.4135 21.4567C69.1509 21.3418 68.9047 21.194 68.6913 21.0135C68.4615 20.8329 68.2809 20.6196 68.1332 20.3898H68.1004V24.8379H66.1308V12.6261H66.1143ZM72.9917 17.0906C72.9917 16.6967 72.9424 16.3028 72.8275 15.9253C72.729 15.5478 72.5649 15.2195 72.3515 14.924C72.1381 14.6286 71.8755 14.3988 71.5801 14.2183C71.2682 14.0377 70.9071 13.9556 70.5132 13.9556C69.6925 13.9556 69.0688 14.2347 68.642 14.8091C68.2317 15.3836 68.0183 16.1551 68.0183 17.1071C68.0183 17.5666 68.0676 17.977 68.1825 18.3545C68.2974 18.732 68.4451 19.0603 68.6749 19.3393C68.8882 19.6183 69.1509 19.8317 69.4627 19.9958C69.7746 20.16 70.1193 20.242 70.5296 20.242C70.9892 20.242 71.3503 20.1436 71.6621 19.963C71.974 19.7825 72.2202 19.5363 72.4336 19.2572C72.6306 18.9618 72.7783 18.6335 72.8603 18.256C72.9424 17.8621 72.9917 17.4846 72.9917 17.0906ZM76.4549 9.22852H78.4246V11.0833H76.4549V9.22852ZM76.4549 12.6261H78.4246V21.5387H76.4549V12.6261ZM80.1808 9.22852H82.1504V21.5387H80.1808V9.22852ZM88.1578 21.7849C87.452 21.7849 86.8119 21.67 86.2539 21.4238C85.6958 21.1776 85.2362 20.8658 84.8423 20.4554C84.4648 20.0451 84.1693 19.5363 83.9724 18.9618C83.7754 18.3873 83.6605 17.7472 83.6605 17.0742C83.6605 16.4013 83.759 15.7775 83.9724 15.2031C84.1693 14.6286 84.4648 14.1362 84.8423 13.7094C85.2198 13.2991 85.6958 12.9708 86.2539 12.741C86.8119 12.5112 87.452 12.3799 88.1578 12.3799C88.8636 12.3799 89.5037 12.4948 90.0618 12.741C90.6199 12.9708 91.0795 13.2991 91.4734 13.7094C91.8509 14.1198 92.1463 14.6286 92.3433 15.2031C92.5403 15.7775 92.6552 16.4013 92.6552 17.0742C92.6552 17.7636 92.5567 18.3873 92.3433 18.9618C92.1299 19.5363 91.8509 20.0287 91.4734 20.4554C91.0959 20.8658 90.6199 21.194 90.0618 21.4238C89.5037 21.6536 88.88 21.7849 88.1578 21.7849ZM88.1578 20.2256C88.5846 20.2256 88.9785 20.1272 89.2904 19.9466C89.6186 19.7661 89.8648 19.5199 90.0782 19.2244C90.2916 18.929 90.4393 18.5843 90.5378 18.2232C90.6363 17.8457 90.6855 17.4681 90.6855 17.0742C90.6855 16.6967 90.6363 16.3192 90.5378 15.9417C90.4393 15.5642 90.2916 15.2359 90.0782 14.9405C89.8648 14.645 89.6022 14.4152 89.2904 14.2347C88.9621 14.0541 88.5846 13.9556 88.1578 13.9556C87.7311 13.9556 87.3372 14.0541 87.0253 14.2347C86.697 14.4152 86.4508 14.6614 86.2374 14.9405C86.0241 15.2359 85.8763 15.5642 85.7779 15.9417C85.6794 16.3192 85.6301 16.6967 85.6301 17.0742C85.6301 17.4681 85.6794 17.8457 85.7779 18.2232C85.8763 18.6007 86.0241 18.929 86.2374 19.2244C86.4508 19.5199 86.7134 19.7661 87.0253 19.9466C87.3536 20.1436 87.7311 20.2256 88.1578 20.2256ZM93.246 12.6261H94.7397V9.9343H96.7093V12.6097H98.482V14.0705H96.7093V18.8305C96.7093 19.0439 96.7257 19.208 96.7422 19.3721C96.7586 19.5198 96.8078 19.6512 96.857 19.7496C96.9227 19.8481 97.0212 19.9302 97.1361 19.9794C97.2674 20.0287 97.4315 20.0615 97.6613 20.0615C97.7926 20.0615 97.9403 20.0615 98.0717 20.0451C98.203 20.0287 98.3507 20.0123 98.482 19.9794V21.5059C98.2686 21.5387 98.0552 21.5551 97.8419 21.5716C97.6285 21.6044 97.4315 21.6044 97.2017 21.6044C96.6765 21.6044 96.2662 21.5551 95.9543 21.4567C95.6424 21.3582 95.3962 21.2105 95.2157 21.0299C95.0351 20.8329 94.9202 20.6031 94.8546 20.3241C94.7889 20.0451 94.7561 19.7004 94.7397 19.3393V14.0869H93.246V12.5933V12.6261Z" fill="black"/>
<path d="M23.5864 9.22855H14.5753L11.8014 0.660645L9.01107 9.22855L0 9.21214L7.28764 14.5137L4.49733 23.0816L11.785 17.78L19.0726 23.0816L16.2987 14.5137L23.5864 9.22855Z" fill="#00B67A"/>
<path d="M16.9228 16.451L16.2991 14.5142L11.8018 17.7805L16.9228 16.451Z" fill="#005128"/>
</svg>
