<svg width="476" height="221" viewBox="0 0 476 221" fill="none" xmlns="http://www.w3.org/2000/svg">
<path opacity="0.2" d="M363.605 580.362C368.975 548.897 376.809 519.301 374.803 485.374C373.369 461.142 367.368 437.294 355.83 414.538C334.318 372.111 306.197 331.664 272.765 299.437C238.603 266.505 205.067 230.673 166.491 205.384C130.625 181.872 92.3708 162.446 57.4033 136.894C-1.18547 94.0822 -42.6531 25.7646 -77.8494 -39.8038C-96.4696 -74.492 -114.937 -109.417 -132.764 -144.516C-143.95 -166.543 -153.348 -190.162 -167.103 -210.631" stroke="#A596FF" stroke-width="4.01667" stroke-linecap="round"/>
<path opacity="0.2" d="M407.265 569.084C413.059 535.09 421.514 503.117 419.339 466.462C417.786 440.281 411.299 414.515 398.832 389.927C375.587 344.084 345.205 300.38 309.088 265.554C272.183 229.968 235.952 191.248 194.28 163.918C155.535 138.508 114.213 117.512 76.4383 89.899C13.1467 43.6325 -31.6575 -30.1863 -69.6874 -101.033C-89.8067 -138.514 -109.761 -176.251 -129.023 -214.176C-141.111 -237.975 -151.266 -263.496 -166.127 -285.613" stroke="#A596FF" stroke-width="4.01667" stroke-linecap="round"/>
</svg>
