<svg width="33" height="33" viewBox="0 0 33 33" fill="none" xmlns="http://www.w3.org/2000/svg">
<circle cx="16.7977" cy="16.2626" r="15.9433" fill="#DBD9EE"/>
<path d="M20.2918 8.80974C17.9837 8.42279 15.6148 8.42279 13.3067 8.80974C12.4635 8.95111 11.792 9.59846 11.6229 10.4378C10.8483 14.2831 10.8061 18.24 11.4983 22.101L11.7802 23.6729C11.8671 24.1576 12.458 24.3514 12.815 24.0122L16.217 20.7803C16.5433 20.4703 17.0553 20.4703 17.3816 20.7803L20.7835 24.0122C21.1406 24.3514 21.7315 24.1576 21.8184 23.6729L22.1002 22.101C22.7925 18.24 22.7502 14.2831 21.9756 10.4378C21.8066 9.59846 21.135 8.95111 20.2918 8.80974Z" fill="#6C5FBC"/>
</svg>
